<svg width="102" height="49" viewBox="0 0 102 49" fill="none" xmlns="http://www.w3.org/2000/svg">
<path d="M15.744 48.448C12.5867 48.448 9.81333 47.4667 7.424 45.504C5.07733 43.5413 3.24267 40.7893 1.92 37.248C0.64 33.664 0 29.44 0 24.576C0 19.8827 0.704 15.7867 2.112 12.288C3.56267 8.74666 5.48267 6.016 7.872 4.096C10.304 2.13333 12.992 1.152 15.936 1.152C17.6853 1.152 19.2213 1.32267 20.544 1.664C21.8667 1.96267 23.04 2.368 24.064 2.88C24.576 3.17867 24.832 3.62667 24.832 4.224L25.024 13.952C25.024 14.6773 24.768 15.04 24.256 15.04C23.7867 15.04 23.488 14.7627 23.36 14.208L22.72 11.84C21.824 8.512 20.7787 6.208 19.584 4.928C18.432 3.648 17.0453 3.008 15.424 3.008C12.4373 3.008 9.94133 4.864 7.936 8.576C5.97333 12.2453 4.992 17.5787 4.992 24.576C4.992 29.3547 5.48267 33.3867 6.464 36.672C7.488 39.9573 8.78933 42.432 10.368 44.096C11.9893 45.76 13.696 46.592 15.488 46.592C17.408 46.592 18.944 45.9947 20.096 44.8C21.2907 43.6053 22.2933 41.3013 23.104 37.888L23.872 34.752C24 34.112 24.3413 33.8347 24.896 33.92C25.3653 34.0053 25.6 34.368 25.6 35.008L25.344 45.376C25.344 45.9733 25.0667 46.4213 24.512 46.72C23.488 47.232 22.272 47.6373 20.864 47.936C19.4987 48.2773 17.792 48.448 15.744 48.448Z" fill="white"/>
<path d="M26.718 47.872C26.206 47.872 25.95 47.6373 25.95 47.168C25.95 46.7413 26.1847 46.4853 26.654 46.4L27.55 46.272C28.446 46.144 29.022 45.888 29.278 45.504C29.5767 45.12 29.726 44.48 29.726 43.584V6.912C29.726 6.144 29.598 5.632 29.342 5.376C29.1287 5.07733 28.7233 4.88533 28.126 4.8L26.782 4.608C26.3127 4.52267 26.078 4.26667 26.078 3.84C26.078 3.41333 26.3127 3.15733 26.782 3.072C27.9767 2.816 28.9793 2.51733 29.79 2.176C30.6007 1.83466 31.2833 1.49333 31.838 1.152C32.5207 0.725334 33.0327 0.512001 33.374 0.512001C33.8433 0.512001 34.078 0.853334 34.078 1.536V18.496C34.078 18.88 34.206 19.1147 34.462 19.2C34.718 19.2427 35.038 19.0933 35.422 18.752C37.0433 17.2587 38.4727 16.2347 39.71 15.68C40.9473 15.1253 42.2487 14.848 43.614 14.848C45.6193 14.848 47.198 15.5307 48.35 16.896C49.502 18.2187 50.078 20.1813 50.078 22.784V43.584C50.078 44.48 50.206 45.12 50.462 45.504C50.7607 45.8453 51.358 46.08 52.254 46.208L53.662 46.4C54.1313 46.4853 54.366 46.7413 54.366 47.168C54.366 47.6373 54.11 47.872 53.598 47.872H42.846C42.2487 47.872 41.95 47.6373 41.95 47.168C41.95 46.7413 42.1847 46.4853 42.654 46.4L43.55 46.272C44.446 46.144 45.022 45.888 45.278 45.504C45.5767 45.12 45.726 44.48 45.726 43.584V23.488C45.726 21.3973 45.342 19.9253 44.574 19.072C43.806 18.2187 42.718 17.792 41.31 17.792C39.9447 17.792 38.7073 18.1973 37.598 19.008C36.5313 19.776 35.678 20.8213 35.038 22.144C34.398 23.424 34.078 24.8533 34.078 26.432V43.584C34.078 44.48 34.206 45.12 34.462 45.504C34.7607 45.888 35.358 46.1227 36.254 46.208L37.982 46.4C38.4513 46.4853 38.686 46.7413 38.686 47.168C38.686 47.6373 38.43 47.872 37.918 47.872H26.718Z" fill="white"/>
<path d="M64.1405 48.448C62.0925 48.448 60.2578 47.7653 58.6365 46.4C57.0152 45.0347 55.7138 43.1147 54.7325 40.64C53.7938 38.1227 53.3245 35.2213 53.3245 31.936C53.3245 28.5653 53.8152 25.6 54.7965 23.04C55.7778 20.48 57.1218 18.4747 58.8285 17.024C60.5352 15.5733 62.4338 14.848 64.5245 14.848C67.0418 14.848 69.0685 15.8933 70.6045 17.984C72.1832 20.032 72.9725 23.3813 72.9725 28.032C72.9725 29.44 72.4392 30.144 71.3725 30.144H59.2125C58.3592 30.144 57.9325 30.6347 57.9325 31.616C57.9325 36.1387 58.5938 39.5307 59.9165 41.792C61.2392 44.0533 62.9245 45.184 64.9725 45.184C66.5938 45.184 67.9165 44.608 68.9405 43.456C69.9645 42.304 70.7965 40.3627 71.4365 37.632C71.5645 37.1627 71.8418 36.928 72.2685 36.928C72.7805 36.928 72.9725 37.3547 72.8445 38.208C72.1618 42.0053 71.0738 44.672 69.5805 46.208C68.0872 47.7013 66.2738 48.448 64.1405 48.448ZM59.0205 28.544H65.4845C67.5325 28.544 68.5565 27.4773 68.5565 25.344C68.5565 22.5707 68.2152 20.3947 67.5325 18.816C66.8498 17.2373 65.8258 16.448 64.4605 16.448C62.7965 16.448 61.3885 17.408 60.2365 19.328C59.1272 21.248 58.4018 23.9787 58.0605 27.52C57.9752 28.2027 58.2952 28.544 59.0205 28.544Z" fill="white"/>
<path d="M73.1945 47.872C72.5545 47.872 72.2345 47.6373 72.2345 47.168C72.2345 46.6987 72.5118 46.4427 73.0665 46.4L74.3465 46.272C75.4132 46.1867 76.0958 45.952 76.3945 45.568C76.6932 45.1413 76.8425 44.48 76.8425 43.584V18.56C76.8425 17.536 76.3305 17.024 75.3065 17.024H73.8345C73.3225 17.024 73.0665 16.8107 73.0665 16.384C73.0665 15.9573 73.3225 15.7227 73.8345 15.68C75.8398 15.4667 76.8425 14.592 76.8425 13.056V12.672C76.8425 10.4533 77.2692 8.384 78.1225 6.464C79.0185 4.544 80.3412 2.98667 82.0905 1.792C83.8398 0.597333 85.9945 0 88.5545 0C91.1572 0 93.2478 0.512 94.8265 1.536C96.4052 2.56 97.1945 3.75467 97.1945 5.12C97.1945 5.93067 96.9812 6.592 96.5545 7.104C96.1705 7.57333 95.5305 7.808 94.6345 7.808C93.7385 7.808 93.0772 7.50933 92.6505 6.912C92.2238 6.31467 91.8185 5.632 91.4345 4.864C91.0932 4.05333 90.6238 3.34933 90.0265 2.752C89.4292 2.15467 88.5118 1.856 87.2745 1.856C86.2078 1.856 85.2052 2.09067 84.2665 2.56C83.3705 3.02933 82.6238 3.86133 82.0265 5.056C81.4718 6.25067 81.1945 7.936 81.1945 10.112V14.464C81.1945 14.976 81.4505 15.232 81.9625 15.232H95.5305C96.5545 15.232 97.0665 15.744 97.0665 16.768V43.584C97.0665 44.48 97.1945 45.12 97.4505 45.504C97.7065 45.888 98.1972 46.1227 98.9225 46.208L100.522 46.4C100.992 46.4853 101.227 46.72 101.227 47.104C101.227 47.616 100.907 47.872 100.267 47.872H89.5785C88.9385 47.872 88.6185 47.6373 88.6185 47.168C88.6185 46.784 88.8958 46.528 89.4505 46.4L90.2185 46.272C91.2852 46.1013 91.9678 45.8453 92.2665 45.504C92.5652 45.12 92.7145 44.48 92.7145 43.584V17.92C92.7145 17.3227 92.4158 17.024 91.8185 17.024H81.9625C81.4505 17.024 81.1945 17.28 81.1945 17.792V43.584C81.1945 44.48 81.3225 45.12 81.5785 45.504C81.8345 45.888 82.3252 46.1227 83.0505 46.208L84.6505 46.4C85.1198 46.4853 85.3545 46.72 85.3545 47.104C85.3545 47.616 85.0345 47.872 84.3945 47.872H73.1945Z" fill="white"/>
</svg>
